<svg width="413" height="413" viewBox="0 0 413 413" fill="none" xmlns="http://www.w3.org/2000/svg">
<g clip-path="url(#clip0_15_2)">
<rect x="7.5" y="7.5" width="398" height="398" rx="199" fill="#ECE5D8" stroke="#631818" stroke-width="15"/>
<path d="M92.5783 145.117C92.3641 147.42 92.2034 149.643 92.0963 151.785C92.0427 153.928 92.0159 155.562 92.0159 156.686C92.0159 157.918 92.0427 159.07 92.0963 160.141C92.1498 161.212 92.2034 162.15 92.2569 162.953H90.409C89.8199 158.936 89.0164 155.776 87.9987 153.473C86.9811 151.116 85.6152 149.455 83.9012 148.491C82.1872 147.474 79.9108 146.965 77.072 146.965H73.6173C72.0104 146.965 70.7785 147.099 69.9215 147.367C69.0645 147.634 68.4753 148.197 68.1539 149.054C67.8861 149.911 67.7522 151.223 67.7522 152.991V193.162C67.7522 195.198 67.9665 196.724 68.395 197.742C68.8235 198.759 69.6537 199.429 70.8856 199.75C72.1175 200.072 73.8851 200.259 76.1883 200.313V202C74.635 201.893 72.6264 201.839 70.1625 201.839C67.6987 201.786 65.1545 201.759 62.5299 201.759C60.2803 201.759 58.111 201.786 56.0221 201.839C53.9332 201.839 52.112 201.893 50.5587 202V200.393C52.3263 200.286 53.6386 200.072 54.4956 199.75C55.4061 199.429 55.9953 198.786 56.2631 197.822C56.5845 196.858 56.7452 195.412 56.7452 193.484V153.633C56.7452 151.651 56.5845 150.205 56.2631 149.295C55.9953 148.331 55.4061 147.688 54.4956 147.367C53.6386 146.992 52.3263 146.777 50.5587 146.724V145.117C52.7012 145.17 54.9508 145.224 57.3076 145.278C59.7179 145.278 62.0746 145.304 64.3778 145.358C66.7345 145.358 68.9038 145.358 70.8856 145.358C72.921 145.358 74.5546 145.358 75.7866 145.358C78.2504 145.358 81.0357 145.358 84.1423 145.358C87.3024 145.304 90.1145 145.224 92.5783 145.117ZM80.4465 173.076C80.4465 173.076 80.4465 173.344 80.4465 173.88C80.4465 174.415 80.4465 174.683 80.4465 174.683H65.3419C65.3419 174.683 65.3419 174.415 65.3419 173.88C65.3419 173.344 65.3419 173.076 65.3419 173.076H80.4465ZM82.2944 162.471C82.0801 165.524 81.973 167.854 81.973 169.461C82.0266 171.068 82.0533 172.541 82.0533 173.88C82.0533 175.219 82.0801 176.692 82.1337 178.299C82.1872 179.906 82.3211 182.236 82.5354 185.289H80.6875C80.4732 183.467 80.0715 181.753 79.4823 180.147C78.8932 178.486 77.9826 177.174 76.7507 176.21C75.5723 175.192 73.8583 174.683 71.6087 174.683V173.076C73.2691 173.076 74.635 172.728 75.7062 172.032C76.7775 171.336 77.6077 170.452 78.1969 169.381C78.8396 168.256 79.3217 167.104 79.643 165.926C80.018 164.694 80.2858 163.542 80.4465 162.471H82.2944ZM106.665 202.562C104.362 202.562 102.407 202.134 100.8 201.277C99.1935 200.366 97.9883 199.161 97.1849 197.661C96.3814 196.108 95.9797 194.394 95.9797 192.519C95.9797 190.216 96.5153 188.342 97.5866 186.895C98.6578 185.396 100.024 184.217 101.684 183.36C103.398 182.45 105.192 181.7 107.067 181.111C108.942 180.468 110.709 179.879 112.37 179.343C114.03 178.754 115.396 178.084 116.467 177.335C117.539 176.585 118.074 175.594 118.074 174.362V168.497C118.074 166.783 117.806 165.39 117.271 164.319C116.789 163.194 116.039 162.364 115.021 161.828C114.057 161.239 112.825 160.945 111.325 160.945C110.2 160.945 109.022 161.105 107.79 161.427C106.558 161.748 105.541 162.364 104.737 163.275C106.13 163.649 107.201 164.346 107.951 165.363C108.754 166.381 109.156 167.613 109.156 169.059C109.156 170.72 108.594 172.032 107.469 172.996C106.398 173.907 105.032 174.362 103.371 174.362C101.604 174.362 100.265 173.799 99.3541 172.675C98.4436 171.55 97.9883 170.238 97.9883 168.738C97.9883 167.238 98.3632 166.006 99.1131 165.042C99.863 164.024 100.907 163.114 102.247 162.31C103.586 161.4 105.3 160.677 107.388 160.141C109.477 159.605 111.754 159.338 114.218 159.338C116.574 159.338 118.663 159.605 120.484 160.141C122.306 160.623 123.859 161.507 125.144 162.792C126.43 164.024 127.26 165.551 127.635 167.372C128.01 169.193 128.197 171.416 128.197 174.041V196.055C128.197 197.394 128.358 198.358 128.679 198.947C129.001 199.483 129.51 199.75 130.206 199.75C130.742 199.75 131.25 199.616 131.733 199.349C132.215 199.081 132.75 198.706 133.339 198.224L134.223 199.59C133.045 200.5 131.813 201.223 130.527 201.759C129.242 202.295 127.689 202.562 125.867 202.562C123.993 202.562 122.493 202.295 121.368 201.759C120.297 201.223 119.494 200.447 118.958 199.429C118.476 198.411 118.208 197.206 118.154 195.814C116.869 197.956 115.289 199.616 113.414 200.795C111.54 201.973 109.29 202.562 106.665 202.562ZM111.486 198.063C112.771 198.063 113.95 197.715 115.021 197.019C116.146 196.322 117.164 195.278 118.074 193.885V177.656C117.539 178.459 116.762 179.182 115.744 179.825C114.78 180.468 113.736 181.111 112.611 181.753C111.486 182.396 110.415 183.146 109.397 184.003C108.433 184.807 107.603 185.824 106.906 187.056C106.264 188.235 105.942 189.761 105.942 191.636C105.942 193.725 106.451 195.332 107.469 196.456C108.487 197.528 109.826 198.063 111.486 198.063ZM162.885 159.338C167.063 159.338 170.544 161.105 173.33 164.64C176.168 168.122 177.588 173.425 177.588 180.548C177.588 185.851 176.758 190.19 175.097 193.564C173.437 196.885 171.214 199.322 168.429 200.875C165.643 202.375 162.617 203.125 159.35 203.125C157.047 203.125 154.824 202.643 152.681 201.679C150.592 200.661 148.905 199.081 147.62 196.938H148.986C150.057 198.438 151.342 199.563 152.842 200.313C154.395 201.009 155.949 201.357 157.502 201.357C160.662 201.357 163.019 199.724 164.572 196.456C166.126 193.135 166.902 188.074 166.902 181.271C166.902 176.772 166.581 173.157 165.938 170.425C165.349 167.64 164.465 165.631 163.287 164.399C162.108 163.114 160.635 162.471 158.868 162.471C156.779 162.471 154.851 163.355 153.083 165.122C151.369 166.89 150.378 169.407 150.11 172.675L149.548 170.425C150.405 166.89 152.012 164.158 154.369 162.23C156.779 160.302 159.618 159.338 162.885 159.338ZM150.432 139.091V199.59C149.307 199.643 148.155 199.858 146.977 200.232C145.799 200.554 144.701 200.982 143.683 201.518C142.665 202 141.781 202.589 141.032 203.285L139.746 202.643C140.014 201.893 140.175 201.143 140.228 200.393C140.282 199.643 140.309 198.867 140.309 198.063V148.732C140.309 146.322 139.907 144.555 139.103 143.43C138.354 142.251 136.934 141.662 134.845 141.662V139.975C136.559 140.136 138.22 140.216 139.826 140.216C141.862 140.216 143.763 140.136 145.531 139.975C147.298 139.761 148.932 139.466 150.432 139.091ZM209.655 159.338C211.315 159.338 212.681 159.686 213.752 160.382C214.877 161.078 215.707 161.962 216.243 163.033C216.779 164.105 217.046 165.23 217.046 166.408C217.046 168.175 216.511 169.648 215.44 170.827C214.422 172.005 213.056 172.594 211.342 172.594C209.735 172.594 208.423 172.166 207.405 171.309C206.388 170.452 205.879 169.273 205.879 167.774C205.879 166.435 206.2 165.31 206.843 164.399C207.539 163.489 208.316 162.766 209.173 162.23C208.584 161.909 207.914 161.802 207.164 161.909C205.879 162.016 204.7 162.471 203.629 163.275C202.558 164.078 201.647 165.069 200.897 166.247C200.148 167.426 199.558 168.684 199.13 170.023C198.755 171.362 198.568 172.648 198.568 173.88V193.725C198.568 196.349 199.237 198.117 200.576 199.027C201.915 199.884 203.87 200.313 206.441 200.313V202C205.209 201.946 203.415 201.893 201.058 201.839C198.755 201.732 196.345 201.679 193.827 201.679C191.738 201.679 189.649 201.732 187.56 201.839C185.525 201.893 183.999 201.946 182.981 202V200.313C184.963 200.313 186.355 199.911 187.159 199.108C188.016 198.304 188.444 196.778 188.444 194.528V169.22C188.444 166.81 188.043 165.042 187.239 163.917C186.489 162.739 185.07 162.15 182.981 162.15V160.462C184.695 160.623 186.355 160.704 187.962 160.704C189.944 160.704 191.819 160.623 193.586 160.462C195.407 160.248 197.068 159.954 198.568 159.579V167.934C199.21 166.435 200.04 165.042 201.058 163.757C202.129 162.471 203.388 161.427 204.834 160.623C206.334 159.766 207.941 159.338 209.655 159.338ZM229.82 139.975C231.748 139.975 233.328 140.511 234.56 141.582C235.792 142.653 236.408 144.072 236.408 145.84C236.408 147.608 235.792 149.027 234.56 150.098C233.328 151.169 231.748 151.705 229.82 151.705C227.892 151.705 226.311 151.169 225.08 150.098C223.848 149.027 223.232 147.608 223.232 145.84C223.232 144.072 223.848 142.653 225.08 141.582C226.311 140.511 227.892 139.975 229.82 139.975ZM235.444 159.579V194.528C235.444 196.778 235.846 198.304 236.649 199.108C237.506 199.911 238.925 200.313 240.907 200.313V202C239.943 201.946 238.47 201.893 236.488 201.839C234.507 201.732 232.498 201.679 230.463 201.679C228.481 201.679 226.472 201.732 224.437 201.839C222.401 201.893 220.875 201.946 219.857 202V200.313C221.839 200.313 223.232 199.911 224.035 199.108C224.892 198.304 225.321 196.778 225.321 194.528V169.3C225.321 166.836 224.919 165.042 224.115 163.917C223.366 162.739 221.946 162.15 219.857 162.15V160.462C221.571 160.623 223.232 160.704 224.839 160.704C226.82 160.704 228.695 160.623 230.463 160.462C232.284 160.248 233.944 159.954 235.444 159.579ZM259.596 139.091V194.528C259.596 196.778 259.971 198.304 260.721 199.108C261.471 199.911 262.757 200.313 264.578 200.313V202C263.667 201.946 262.275 201.893 260.4 201.839C258.525 201.732 256.624 201.679 254.695 201.679C252.714 201.679 250.678 201.732 248.589 201.839C246.554 201.893 245.028 201.946 244.01 202V200.313C245.992 200.313 247.384 199.911 248.188 199.108C249.045 198.304 249.473 196.778 249.473 194.528V148.732C249.473 146.322 249.071 144.555 248.268 143.43C247.518 142.251 246.099 141.662 244.01 141.662V139.975C245.724 140.136 247.384 140.216 248.991 140.216C251.026 140.216 252.928 140.136 254.695 139.975C256.463 139.761 258.097 139.466 259.596 139.091ZM285.628 160.462V162.069C284.021 162.391 282.468 163.007 280.968 163.917C279.468 164.774 277.995 165.979 276.549 167.533L268.595 175.808L269.479 174.041L283.619 196.135C284.369 197.206 285.065 198.117 285.708 198.867C286.404 199.563 287.261 200.045 288.279 200.313V202C287.583 201.946 286.485 201.893 284.985 201.839C283.485 201.732 281.985 201.679 280.486 201.679C278.665 201.679 276.79 201.732 274.862 201.839C272.987 201.893 271.568 201.946 270.603 202V200.313C271.675 200.313 272.398 200.072 272.773 199.59C273.201 199.054 273.148 198.385 272.612 197.581L264.256 183.521C263.506 182.343 262.783 181.593 262.087 181.271C261.391 180.896 260.453 180.709 259.275 180.709V179.102C260.614 178.995 261.712 178.754 262.569 178.379C263.48 178.004 264.337 177.415 265.14 176.612L271.166 170.586C272.933 168.818 273.817 167.318 273.817 166.087C273.871 164.855 273.308 163.917 272.13 163.275C271.005 162.578 269.532 162.176 267.711 162.069V160.462C269.157 160.516 270.764 160.596 272.532 160.704C274.299 160.757 275.799 160.784 277.031 160.784C277.995 160.784 279.013 160.784 280.084 160.784C281.209 160.73 282.253 160.677 283.217 160.623C284.235 160.57 285.039 160.516 285.628 160.462ZM309.074 159.338C312.77 159.338 316.037 160.088 318.876 161.587C321.768 163.033 324.045 165.363 325.705 168.577C327.419 171.791 328.276 176.022 328.276 181.271C328.276 186.521 327.419 190.752 325.705 193.966C324.045 197.179 321.768 199.509 318.876 200.956C316.037 202.402 312.77 203.125 309.074 203.125C305.378 203.125 302.084 202.402 299.192 200.956C296.3 199.509 294.023 197.179 292.363 193.966C290.702 190.752 289.872 186.521 289.872 181.271C289.872 176.022 290.702 171.791 292.363 168.577C294.023 165.363 296.3 163.033 299.192 161.587C302.084 160.088 305.378 159.338 309.074 159.338ZM309.074 160.945C306.557 160.945 304.495 162.551 302.888 165.765C301.334 168.925 300.558 174.094 300.558 181.271C300.558 188.449 301.334 193.618 302.888 196.778C304.495 199.938 306.557 201.518 309.074 201.518C311.538 201.518 313.573 199.938 315.18 196.778C316.787 193.618 317.591 188.449 317.591 181.271C317.591 174.094 316.787 168.925 315.18 165.765C313.573 162.551 311.538 160.945 309.074 160.945ZM318.153 141.341C319.653 141.341 320.965 141.903 322.09 143.028C323.215 144.153 323.777 145.465 323.777 146.965C323.777 148.518 323.215 149.857 322.09 150.982C320.965 152.053 319.653 152.589 318.153 152.589C316.6 152.589 315.287 152.053 314.216 150.982C313.145 149.857 312.609 148.518 312.609 146.965C312.609 145.465 313.145 144.153 314.216 143.028C315.287 141.903 316.6 141.341 318.153 141.341ZM300.317 141.341C301.816 141.341 303.102 141.903 304.173 143.028C305.298 144.153 305.86 145.465 305.86 146.965C305.86 148.518 305.298 149.857 304.173 150.982C303.048 152.053 301.763 152.589 300.317 152.589C298.763 152.589 297.424 152.053 296.3 150.982C295.228 149.857 294.693 148.518 294.693 146.965C294.693 145.465 295.228 144.153 296.3 143.028C297.424 141.903 298.763 141.341 300.317 141.341ZM360.22 159.338C361.881 159.338 363.246 159.686 364.318 160.382C365.443 161.078 366.273 161.962 366.808 163.033C367.344 164.105 367.612 165.23 367.612 166.408C367.612 168.175 367.076 169.648 366.005 170.827C364.987 172.005 363.621 172.594 361.907 172.594C360.301 172.594 358.988 172.166 357.971 171.309C356.953 170.452 356.444 169.273 356.444 167.774C356.444 166.435 356.765 165.31 357.408 164.399C358.104 163.489 358.881 162.766 359.738 162.23C359.149 161.909 358.479 161.802 357.73 161.909C356.444 162.016 355.266 162.471 354.194 163.275C353.123 164.078 352.213 165.069 351.463 166.247C350.713 167.426 350.124 168.684 349.695 170.023C349.32 171.362 349.133 172.648 349.133 173.88V193.725C349.133 196.349 349.802 198.117 351.141 199.027C352.48 199.884 354.435 200.313 357.006 200.313V202C355.775 201.946 353.98 201.893 351.623 201.839C349.32 201.732 346.91 201.679 344.393 201.679C342.304 201.679 340.215 201.732 338.126 201.839C336.09 201.893 334.564 201.946 333.546 202V200.313C335.528 200.313 336.921 199.911 337.724 199.108C338.581 198.304 339.01 196.778 339.01 194.528V169.22C339.01 166.81 338.608 165.042 337.804 163.917C337.055 162.739 335.635 162.15 333.546 162.15V160.462C335.26 160.623 336.921 160.704 338.527 160.704C340.509 160.704 342.384 160.623 344.152 160.462C345.973 160.248 347.633 159.954 349.133 159.579V167.934C349.776 166.435 350.606 165.042 351.623 163.757C352.695 162.471 353.953 161.427 355.4 160.623C356.899 159.766 358.506 159.338 360.22 159.338ZM156.563 252.117C156.348 254.42 156.188 256.643 156.081 258.785C156.027 260.928 156 262.562 156 263.686C156 264.918 156.027 266.07 156.081 267.141C156.134 268.212 156.188 269.15 156.241 269.953H154.393C153.804 265.936 153.001 262.776 151.983 260.473C150.965 258.116 149.6 256.455 147.886 255.491C146.172 254.474 143.895 253.965 141.056 253.965H137.602C135.995 253.965 134.763 254.099 133.906 254.367C133.049 254.634 132.46 255.197 132.138 256.054C131.87 256.911 131.737 258.223 131.737 259.991V300.162C131.737 302.198 131.951 303.724 132.379 304.742C132.808 305.759 133.638 306.429 134.87 306.75C136.102 307.072 137.869 307.259 140.173 307.313V309C138.619 308.893 136.611 308.839 134.147 308.839C131.683 308.786 129.139 308.759 126.514 308.759C124.265 308.759 122.095 308.786 120.006 308.839C117.918 308.839 116.096 308.893 114.543 309V307.393C116.311 307.286 117.623 307.072 118.48 306.75C119.39 306.429 119.98 305.786 120.247 304.822C120.569 303.858 120.73 302.412 120.73 300.484V260.633C120.73 258.651 120.569 257.205 120.247 256.295C119.98 255.331 119.39 254.688 118.48 254.367C117.623 253.992 116.311 253.777 114.543 253.724V252.117C116.686 252.17 118.935 252.224 121.292 252.278C123.702 252.278 126.059 252.304 128.362 252.358C130.719 252.358 132.888 252.358 134.87 252.358C136.905 252.358 138.539 252.358 139.771 252.358C142.235 252.358 145.02 252.358 148.127 252.358C151.287 252.304 154.099 252.224 156.563 252.117ZM144.431 280.076C144.431 280.076 144.431 280.344 144.431 280.88C144.431 281.415 144.431 281.683 144.431 281.683H129.326C129.326 281.683 129.326 281.415 129.326 280.88C129.326 280.344 129.326 280.076 129.326 280.076H144.431ZM146.279 269.471C146.064 272.524 145.957 274.854 145.957 276.461C146.011 278.068 146.038 279.541 146.038 280.88C146.038 282.219 146.064 283.692 146.118 285.299C146.172 286.906 146.306 289.236 146.52 292.289H144.672C144.458 290.467 144.056 288.753 143.467 287.147C142.878 285.486 141.967 284.174 140.735 283.21C139.557 282.192 137.843 281.683 135.593 281.683V280.076C137.254 280.076 138.619 279.728 139.691 279.032C140.762 278.336 141.592 277.452 142.181 276.381C142.824 275.256 143.306 274.104 143.627 272.926C144.002 271.694 144.27 270.542 144.431 269.471H146.279ZM175.214 246.091V301.528C175.214 303.778 175.616 305.304 176.419 306.108C177.276 306.911 178.696 307.313 180.678 307.313V309C179.714 308.946 178.241 308.893 176.259 308.839C174.33 308.732 172.349 308.679 170.313 308.679C168.332 308.679 166.296 308.732 164.207 308.839C162.172 308.893 160.645 308.946 159.628 309V307.313C161.609 307.313 163.002 306.911 163.806 306.108C164.663 305.304 165.091 303.778 165.091 301.528V255.732C165.091 253.322 164.716 251.555 163.966 250.43C163.216 249.251 161.77 248.662 159.628 248.662V246.975C161.342 247.136 163.002 247.216 164.609 247.216C166.644 247.216 168.546 247.136 170.313 246.975C172.081 246.761 173.715 246.466 175.214 246.091ZM204.055 266.338C207.751 266.338 211.018 267.088 213.857 268.587C216.749 270.033 219.026 272.363 220.686 275.577C222.4 278.791 223.257 283.022 223.257 288.271C223.257 293.521 222.4 297.752 220.686 300.966C219.026 304.179 216.749 306.509 213.857 307.956C211.018 309.402 207.751 310.125 204.055 310.125C200.359 310.125 197.065 309.402 194.173 307.956C191.28 306.509 189.004 304.179 187.344 300.966C185.683 297.752 184.853 293.521 184.853 288.271C184.853 283.022 185.683 278.791 187.344 275.577C189.004 272.363 191.28 270.033 194.173 268.587C197.065 267.088 200.359 266.338 204.055 266.338ZM204.055 267.945C201.538 267.945 199.475 269.551 197.869 272.765C196.315 275.925 195.539 281.094 195.539 288.271C195.539 295.449 196.315 300.618 197.869 303.778C199.475 306.938 201.538 308.518 204.055 308.518C206.519 308.518 208.554 306.938 210.161 303.778C211.768 300.618 212.571 295.449 212.571 288.271C212.571 281.094 211.768 275.925 210.161 272.765C208.554 269.551 206.519 267.945 204.055 267.945ZM255.201 266.338C256.862 266.338 258.227 266.686 259.299 267.382C260.423 268.078 261.254 268.962 261.789 270.033C262.325 271.105 262.593 272.23 262.593 273.408C262.593 275.175 262.057 276.648 260.986 277.827C259.968 279.005 258.602 279.594 256.888 279.594C255.281 279.594 253.969 279.166 252.951 278.309C251.934 277.452 251.425 276.273 251.425 274.774C251.425 273.435 251.746 272.31 252.389 271.399C253.085 270.489 253.862 269.766 254.719 269.23C254.13 268.909 253.46 268.802 252.71 268.909C251.425 269.016 250.247 269.471 249.175 270.275C248.104 271.078 247.194 272.069 246.444 273.247C245.694 274.426 245.105 275.684 244.676 277.023C244.301 278.362 244.114 279.648 244.114 280.88V300.725C244.114 303.349 244.783 305.117 246.122 306.027C247.461 306.884 249.416 307.313 251.987 307.313V309C250.755 308.946 248.961 308.893 246.604 308.839C244.301 308.732 241.891 308.679 239.373 308.679C237.285 308.679 235.196 308.732 233.107 308.839C231.071 308.893 229.545 308.946 228.527 309V307.313C230.509 307.313 231.902 306.911 232.705 306.108C233.562 305.304 233.99 303.778 233.99 301.528V276.22C233.99 273.81 233.589 272.042 232.785 270.917C232.035 269.739 230.616 269.15 228.527 269.15V267.462C230.241 267.623 231.902 267.704 233.508 267.704C235.49 267.704 237.365 267.623 239.132 267.462C240.954 267.248 242.614 266.954 244.114 266.579V274.934C244.756 273.435 245.587 272.042 246.604 270.757C247.676 269.471 248.934 268.427 250.38 267.623C251.88 266.766 253.487 266.338 255.201 266.338ZM276.571 309.562C274.268 309.562 272.313 309.134 270.706 308.277C269.099 307.366 267.894 306.161 267.091 304.661C266.287 303.108 265.886 301.394 265.886 299.519C265.886 297.216 266.421 295.342 267.492 293.895C268.564 292.396 269.929 291.217 271.59 290.36C273.304 289.45 275.098 288.7 276.973 288.111C278.848 287.468 280.615 286.879 282.276 286.343C283.936 285.754 285.302 285.084 286.373 284.335C287.444 283.585 287.98 282.594 287.98 281.362V275.497C287.98 273.783 287.712 272.39 287.176 271.319C286.694 270.194 285.945 269.364 284.927 268.828C283.963 268.239 282.731 267.945 281.231 267.945C280.106 267.945 278.928 268.105 277.696 268.427C276.464 268.748 275.446 269.364 274.643 270.275C276.036 270.649 277.107 271.346 277.857 272.363C278.66 273.381 279.062 274.613 279.062 276.059C279.062 277.72 278.499 279.032 277.375 279.996C276.303 280.907 274.938 281.362 273.277 281.362C271.51 281.362 270.17 280.799 269.26 279.675C268.349 278.55 267.894 277.238 267.894 275.738C267.894 274.238 268.269 273.006 269.019 272.042C269.769 271.024 270.813 270.114 272.152 269.31C273.491 268.4 275.205 267.677 277.294 267.141C279.383 266.605 281.66 266.338 284.123 266.338C286.48 266.338 288.569 266.605 290.39 267.141C292.211 267.623 293.765 268.507 295.05 269.792C296.336 271.024 297.166 272.551 297.541 274.372C297.916 276.193 298.103 278.416 298.103 281.041V303.055C298.103 304.394 298.264 305.358 298.585 305.947C298.907 306.483 299.415 306.75 300.112 306.75C300.647 306.75 301.156 306.616 301.638 306.349C302.12 306.081 302.656 305.706 303.245 305.224L304.129 306.59C302.951 307.5 301.719 308.223 300.433 308.759C299.148 309.295 297.594 309.562 295.773 309.562C293.899 309.562 292.399 309.295 291.274 308.759C290.203 308.223 289.399 307.447 288.864 306.429C288.382 305.411 288.114 304.206 288.06 302.814C286.775 304.956 285.195 306.616 283.32 307.795C281.445 308.973 279.196 309.562 276.571 309.562ZM281.392 305.063C282.677 305.063 283.856 304.715 284.927 304.019C286.052 303.322 287.069 302.278 287.98 300.885V284.656C287.444 285.459 286.668 286.182 285.65 286.825C284.686 287.468 283.641 288.111 282.517 288.753C281.392 289.396 280.321 290.146 279.303 291.003C278.339 291.807 277.509 292.824 276.812 294.056C276.169 295.235 275.848 296.761 275.848 298.636C275.848 300.725 276.357 302.332 277.375 303.456C278.392 304.528 279.731 305.063 281.392 305.063Z" fill="#631818"/>
</g>
<defs>
<clipPath id="clip0_15_2">
<rect width="413" height="413" fill="white"/>
</clipPath>
</defs>
</svg>
